<svg xmlns="http://www.w3.org/2000/svg" viewBox="0 0 353.89 70.22"><defs><style>.cls-1{fill:#1c1c1c;}.cls-2{fill:none;}.cls-3{fill:#03a8ff;}.cls-4{fill:#0076b7;}</style></defs><g id="Layer_2" data-name="Layer 2"><g id="Layer_1-2" data-name="Layer 1"><path class="cls-1" d="M96.7,38.25V19h9.64c3.11,0,5.83,1.84,5.83,5a4.74,4.74,0,0,1-2.58,4.37A4.74,4.74,0,0,1,113.14,33c0,3.31-2.62,5.27-5.88,5.27Zm4.67-15.37v3.94h4.06a1.81,1.81,0,0,0,1.89-2,1.9,1.9,0,0,0-2-2Zm0,7.52v4H106a1.91,1.91,0,0,0,2-2,1.89,1.89,0,0,0-2-2Z"/><path class="cls-1" d="M128.47,31.08,120.27,19h5.57l5,7.35L136,19h5.32l-8.14,12.11v7.17h-4.67Z"/><path class="cls-1" d="M149.16,35.12,158.36,23h-9.2V19H164.5v3.15l-9.17,12.15h9.17v4H149.16Z"/><path class="cls-1" d="M178.67,34.71l-1.3,3.54h-5L180,19h5.53l7.62,19.28h-5l-1.31-3.54Zm6.83-3.63-2.74-7.44L180,31.08Z"/><path class="cls-1" d="M206.49,38.25h-4.67V19h4l9.87,11.75V19h4.67V38.25h-4.05l-9.79-11.64Z"/><path class="cls-1" d="M234.88,23h-5.71V19h16.05v4h-5.69V38.25h-4.65Z"/><path class="cls-1" d="M258.74,38.25h-4.67V19h4.67Z"/><path class="cls-1" d="M273.58,38.25h-4.67V19h4l9.87,11.75V19h4.66V38.25h-4l-9.79-11.64Z"/><path class="cls-1" d="M312.27,38.25H297.58V19h14.54v3.94h-9.87v3.57H311V30.4h-8.75v3.93h10Z"/><path class="cls-1" d="M101.54,66.41l-1.3,3.53h-5l7.61-19.27h5.53L116,69.94h-5l-1.31-3.53Zm6.83-3.64-2.74-7.43-2.75,7.43Z"/><path class="cls-1" d="M138,51.73l-.38,4a15.19,15.19,0,0,0-5.91-1.31c-1.64,0-3,.43-3,1.74S129.9,57.64,131,58l2.75.79c3.55,1,5.31,2.49,5.31,5.52,0,3.54-3,6-7.68,6a18,18,0,0,1-7.28-1.5l.37-4.1c.48.52,3.93,1.52,6.58,1.52,1.75,0,3.21-.43,3.21-1.72,0-.9-.61-1.35-2-1.72l-3-.76c-2.57-.84-5.27-2.11-5.27-5.57s3-6,7.56-6A14.65,14.65,0,0,1,138,51.73Z"/><path class="cls-1" d="M161.68,51.73l-.38,4a15.19,15.19,0,0,0-5.91-1.31c-1.64,0-3,.43-3,1.74s1.14,1.49,2.24,1.8l2.76.79c3.55,1,5.3,2.49,5.3,5.52,0,3.54-3,6-7.67,6a18,18,0,0,1-7.28-1.5l.37-4.1c.48.52,3.93,1.52,6.58,1.52,1.75,0,3.21-.43,3.21-1.72,0-.9-.61-1.35-2-1.72l-3-.76c-2.57-.84-5.27-2.11-5.27-5.57s3-6,7.56-6A14.65,14.65,0,0,1,161.68,51.73Z"/><path class="cls-1" d="M181.5,50.38c6.06,0,10.22,4.08,10.22,9.91s-4.16,9.93-10.22,9.93-10.28-4.08-10.28-9.94S175.41,50.38,181.5,50.38Zm0,15.54c3.25,0,5.42-2.3,5.42-5.63a5.22,5.22,0,0,0-5.42-5.58,5.61,5.61,0,0,0,0,11.21Z"/><path class="cls-1" d="M211.53,50.38a14.74,14.74,0,0,1,6.07,1.31l-.29,4.06a11.86,11.86,0,0,0-5.1-1.12c-3.6,0-7.08,1.57-7.08,5.63,0,3.6,2.79,5.86,6.57,5.86a10.35,10.35,0,0,0,5.62-1.49l.64,4a15.34,15.34,0,0,1-7,1.63c-5.79,0-10.63-3.86-10.63-9.9C200.35,53.72,205.77,50.38,211.53,50.38Z"/><path class="cls-1" d="M231.77,69.94H227.1V50.67h4.67Z"/><path class="cls-1" d="M246.78,66.41l-1.3,3.53h-5l7.61-19.27h5.53l7.62,19.27h-5l-1.31-3.53Zm6.83-3.64-2.74-7.43-2.75,7.43Z"/><path class="cls-1" d="M272.23,54.68h-5.7v-4h16.05v4h-5.69V69.94h-4.66Z"/><path class="cls-1" d="M296.09,69.94h-4.66V50.67h4.66Z"/><path class="cls-1" d="M315.77,50.38c6.06,0,10.22,4.08,10.22,9.91s-4.16,9.93-10.22,9.93-10.27-4.08-10.27-9.94S309.69,50.38,315.77,50.38Zm.05,15.54c3.25,0,5.42-2.3,5.42-5.63a5.22,5.22,0,0,0-5.42-5.58,5.61,5.61,0,0,0,0,11.21Z"/><path class="cls-1" d="M340.06,69.94h-4.67V50.67h4l9.86,11.75V50.67h4.67V69.94h-4L340.06,58.3Z"/><path class="cls-2" d="M18.45,59.13h10.1l6-10.35,1.29-2.24-5-8.79Z"/><path class="cls-3" d="M40.84,37.92l-5-8.77-.17.29L46.82,10.27,40.62,0,34.5,10.27l-5,8.56L6.13,59.13,5,61,0,69.67l10,.06H34.68l6-10.37h0l6.16-10.61h0l.05-.09ZM34.56,48.78l-6,10.35H18.45L30.86,37.75l5,8.79Z"/><path class="cls-4" d="M76.1,60.76,63,38.23,58,29.53,51.82,18.94l-6.09,10.5L51.8,40.13l-4.89,8.53h9.85l.11.19,6,10.28h-10l-1-1.68-7,12.29h26l10.39-.07Z"/></g></g></svg>